<svg width="858" height="172" viewBox="0 0 858 172" fill="none" xmlns="http://www.w3.org/2000/svg">
  <rect width="858" height="172" fill="#fff"/>
  <g font-family="Segoe UI, Arial, sans-serif">
    <g filter="url(#shadow)">
      <rect x="13" y="11" width="267" height="148" rx="19" fill="#fff" stroke="#ff9aae"/>
      <text x="69" y="44" fill="#2b2d2f" font-size="13" font-weight="700">Glucides totaux</text>
      <text x="24" y="94" fill="#ef2f62" font-size="28" font-weight="800">0 g</text>
      <rect x="25" y="100" width="243" height="9" rx="4.5" fill="#f58b8f"/>
      <rect x="119" y="100" width="32" height="9" fill="#ffc269"/>
      <rect x="151" y="100" width="61" height="9" fill="#51bf79"/>
      <rect x="212" y="100" width="20" height="9" fill="#ffc269"/>
      <path d="M25 98l-7-8h14l-7 8z" fill="#ef2f62"/>
      <path d="M180 117l-7 8h14l-7-8z" fill="#8b8f8a"/>
      <text x="170" y="130" fill="#6f756c" font-size="10">76 g</text>
    </g>
    <g filter="url(#shadow)">
      <rect x="295" y="11" width="267" height="148" rx="19" fill="#fff" stroke="#ffc46a"/>
      <text x="352" y="44" fill="#2b2d2f" font-size="13" font-weight="700">Eau totale</text>
      <text x="306" y="94" fill="#d96f00" font-size="28" font-weight="800">1500 ml</text>
      <rect x="307" y="100" width="243" height="9" rx="4.5" fill="#f58b8f"/>
      <rect x="402" y="100" width="31" height="9" fill="#ffc269"/>
      <rect x="433" y="100" width="61" height="9" fill="#51bf79"/>
      <rect x="494" y="100" width="19" height="9" fill="#ffc269"/>
      <path d="M502 98l-7-8h14l-7 8z" fill="#d96f00"/>
      <path d="M370 117l-7 8h14l-7-8z" fill="#8b8f8a"/>
      <text x="356" y="130" fill="#6f756c" font-size="10">542 ml</text>
      <text x="307" y="145" fill="#c85f00" font-size="11">Volume max : 1500 ml d'eau</text>
    </g>
    <g filter="url(#shadow)">
      <rect x="578" y="11" width="267" height="148" rx="19" fill="#fff" stroke="#ff9aae"/>
      <text x="633" y="44" fill="#2b2d2f" font-size="13" font-weight="700">Sodium total</text>
      <text x="589" y="94" fill="#ef2f62" font-size="28" font-weight="800">0 mg</text>
      <rect x="590" y="100" width="243" height="9" rx="4.5" fill="#f58b8f"/>
      <rect x="685" y="100" width="31" height="9" fill="#ffc269"/>
      <rect x="716" y="100" width="61" height="9" fill="#51bf79"/>
      <rect x="777" y="100" width="20" height="9" fill="#ffc269"/>
      <path d="M590 98l-7-8h14l-7 8z" fill="#ef2f62"/>
      <path d="M755 117l-7 8h14l-7-8z" fill="#8b8f8a"/>
      <text x="739" y="130" fill="#6f756c" font-size="10">650 mg</text>
    </g>
  </g>
  <defs>
    <filter id="shadow" x="0" y="0" width="858" height="172" filterUnits="userSpaceOnUse" color-interpolation-filters="sRGB">
      <feDropShadow dx="1" dy="4" stdDeviation="2" flood-color="#000" flood-opacity=".08"/>
    </filter>
  </defs>
</svg>
