<svg width="1321" height="230" viewBox="0 0 1321 230" fill="none" xmlns="http://www.w3.org/2000/svg">
  <rect width="1321" height="230" rx="20" fill="#0C1429"/>
  <rect x="24" y="24" width="1273" height="182" rx="16" fill="#0F1B33" stroke="#124B41" stroke-width="2"/>
  <g filter="url(#glow)">
    <rect x="40" y="48" width="1241" height="6" rx="3" fill="#0D231D"/>
  </g>
  <g transform="translate(56,74)">
    <rect width="1209" height="56" rx="16" fill="#101A33" stroke="#1B3A38" stroke-width="2"/>
    <rect x="16" y="30" width="1177" height="10" rx="5" fill="#A94A66"/>
    <rect x="16" y="30" width="720" height="10" rx="5" fill="#D28A37"/>
    <rect x="16" y="30" width="420" height="10" rx="5" fill="#2F8F83"/>
    <circle cx="460" cy="35" r="7" fill="#0C1429" stroke="#E6F7F3" stroke-width="2"/>
    <circle cx="720" cy="35" r="7" fill="#0C1429" stroke="#E6F7F3" stroke-width="2"/>
    <circle cx="1020" cy="35" r="7" fill="#0C1429" stroke="#E6F7F3" stroke-width="2"/>
    <text x="20" y="20" fill="#E6F7F3" font-family="Inter, system-ui" font-size="16" font-weight="700">Carbs on course</text>
    <text x="960" y="20" fill="#9AE6C7" font-family="Inter, system-ui" font-size="12" font-weight="600">Above target</text>
    <text x="20" y="54" fill="#D9E3FF" font-family="Inter, system-ui" font-size="12" font-weight="500">Cible : 146 g</text>
  </g>
  <g transform="translate(56,138)">
    <rect width="1209" height="56" rx="16" fill="#101A33" stroke="#1B3A38" stroke-width="2"/>
    <rect x="16" y="30" width="1177" height="10" rx="5" fill="#A94A66" opacity="0.35"/>
    <rect x="16" y="30" width="940" height="10" rx="5" fill="#2F8F83"/>
    <rect x="16" y="30" width="620" height="10" rx="5" fill="#D28A37"/>
    <circle cx="660" cy="35" r="7" fill="#0C1429" stroke="#E6F7F3" stroke-width="2"/>
    <circle cx="980" cy="35" r="7" fill="#0C1429" stroke="#E6F7F3" stroke-width="2"/>
    <text x="20" y="20" fill="#E6F7F3" font-family="Inter, system-ui" font-size="16" font-weight="700">Water & sodium balance</text>
    <text x="1020" y="20" fill="#9AE6C7" font-family="Inter, system-ui" font-size="12" font-weight="600">Within target</text>
    <text x="20" y="54" fill="#D9E3FF" font-family="Inter, system-ui" font-size="12" font-weight="500">Cible : 1040 ml</text>
  </g>
  <defs>
    <filter id="glow" x="0" y="0" width="1321" height="230" filterUnits="userSpaceOnUse" color-interpolation-filters="sRGB">
      <feGaussianBlur stdDeviation="24" result="blur"/>
      <feBlend in="SourceGraphic" in2="blur" mode="normal"/>
    </filter>
  </defs>
</svg>
