<svg width="512" height="512" xmlns="http://www.w3.org/2000/svg" version="1.1" enable-background="new 0 0 512 512" xml:space="preserve">
 <g>
  <title>Layer 1</title>
  <path fill="#000000" d="m391,513c-120.68756,0 -241.37512,0 -362.62663,-0.34998c-7.88606,-3.36825 -11.53625,-8.61706 -11.43302,-16.75653c0.20276,-15.98782 0.1562,-31.98089 0.00895,-47.96994c-0.05386,-5.84842 2.37712,-10.12152 7.25651,-12.89376c6.56618,-3.73063 13.17954,-7.44022 20.04696,-10.55384c3.71917,-1.68622 4.84627,-3.70028 4.84232,-7.72192c-0.11718,-119.09497 -0.09512,-238.19013 -0.09459,-357.28523c0.00001,-1.33249 -0.20112,-2.70446 0.04251,-3.99159c4.16516,-22.00499 15.96283,-38.40207 36.11931,-48.43397c4.76752,-2.37281 9.88252,-4.04744 14.83768,-6.04324c72.35423,0 144.70845,0 217.65649,0.37641c27.89368,5.21647 50.62101,30.34169 51.28873,58.27527c0.31854,13.32497 0.05478,26.66386 0.05478,39.99644c0,20.65088 0,41.30177 0,61.90142c20.85574,6.04154 37.87726,17.22086 50.0473,35.07804c9.10947,13.36642 14.26886,27.89726 14.08737,44.50711c-0.42245,38.65987 -0.16894,77.32756 -0.0906,115.9919c0.00961,4.73767 0.47863,9.4898 0.99337,14.207c0.59592,5.46075 3.67374,9.46567 8.65256,11.46197c5.75675,2.30823 11.47324,1.80832 16.40671,-2.4014c4.90561,-4.18588 5.85031,-10.00811 5.8602,-15.9284c0.07764,-46.49725 0.04309,-92.99469 0.04309,-139.49207c0,-16.82641 0,-33.65284 0,-50.40113c-25.07556,-11.59307 -35.02692,-36.08921 -31.2359,-51.21074c-7.60962,-3.7856 -15.23602,-7.56908 -22.853,-11.37156c-8.71316,-4.34973 -12.19458,-13.97933 -8.00201,-22.45095c4.04233,-8.16805 13.01553,-12.04734 22.37286,-7.43451c20.9422,10.32377 41.784,20.85168 62.64142,31.34666c6.12448,3.08168 9.16589,7.83095 9.15482,15.03078c-0.12384,80.49527 -0.14087,160.9909 -0.01453,241.48617c0.02032,12.9502 -4.68182,23.85199 -13.47849,32.78186c-14.66284,14.88492 -34.75134,18.22876 -53.44628,10.7356c-16.71598,-6.69995 -29.38895,-24.0144 -29.23166,-43.75961c0.31323,-39.32862 0.08191,-78.6615 0.10028,-117.99262c0.00473,-10.1407 -0.44837,-20.2485 -5.06659,-29.52072c-5.75061,-11.54571 -14.57303,-20.0027 -26.43759,-25.43117c-0.27735,0.7737 -0.4755,1.06833 -0.47559,1.36303c-0.01828,73.66247 -0.03973,147.32498 0.09668,220.98718c0.00269,1.44418 1.54105,3.46051 2.91241,4.2279c6.03452,3.37665 12.24387,6.44693 18.44129,9.52469c7.24326,3.59714 10.96109,8.85865 10.65909,17.44873c-0.50327,14.31482 -0.59571,28.6803 0.03027,42.98545c0.39154,8.94836 -2.12915,15.51477 -10.16748,19.68127m-145.5,-480c-42.15883,0 -84.31778,-0.04522 -126.47631,0.06775c-4.36588,0.01169 -8.94385,0.28943 -13.05657,1.59729c-17.6724,5.6199 -24.84294,17.14302 -24.87085,35.27254c-0.18573,120.64398 -0.09626,241.28837 -0.09627,361.93263c0,0.99982 0.0906,2.00934 -0.0155,2.99777c-0.49827,4.64185 -1.94404,8.77493 -6.38045,11.16788c-8.47276,4.57 -16.95394,9.12448 -25.26947,13.59814c0,7.0969 0,14.17728 0,21.04801c106.7262,0 213.1176,0 319.5724,0c0,-7.29615 0,-14.27414 0,-21.20633c-7.42202,-3.73526 -14.72543,-7.47714 -22.08874,-11.09708c-6.78028,-3.33331 -9.9802,-8.49972 -9.8949,-16.23303c0.22604,-20.49368 0.12997,-40.9917 0.06769,-61.4877c-0.31378,-103.23004 -0.54853,-206.4608 -1.29236,-309.68782c-0.03995,-5.5441 -3.57483,-11.68699 -7.0108,-16.44855c-6.50452,-9.01399 -16.71534,-11.30009 -27.19913,-11.44896c-18.32623,-0.26025 -36.65881,-0.07254 -55.98874,-0.07254z" id="svg_1"/>
  <path fill="none" d="m391.46866,513c7.56967,-4.1665 10.09036,-10.73291 9.69882,-19.68127c-0.62598,-14.30515 -0.53354,-28.67063 -0.03027,-42.98545c0.302,-8.59008 -3.41583,-13.85159 -10.65909,-17.44873c-6.19742,-3.07776 -12.40677,-6.14804 -18.44129,-9.52469c-1.37136,-0.76739 -2.90972,-2.78372 -2.91241,-4.2279c-0.13641,-73.6622 -0.11496,-147.32471 -0.09668,-220.98718c0.00009,-0.2947 0.19824,-0.58933 0.47559,-1.36303c11.86456,5.42847 20.68698,13.88546 26.43759,25.43117c4.61822,9.27222 5.07132,19.38002 5.06659,29.52072c-0.01837,39.33112 0.21295,78.664 -0.10028,117.99262c-0.15729,19.74521 12.51568,37.05966 29.23166,43.75961c18.69494,7.49316 38.78344,4.14932 53.44628,-10.7356c8.79667,-8.92987 13.49881,-19.83166 13.47849,-32.78186c-0.12634,-80.49527 -0.10931,-160.9909 0.01453,-241.48617c0.01107,-7.19983 -3.03034,-11.9491 -9.15482,-15.03078c-20.85742,-10.49498 -41.69922,-21.02289 -62.64142,-31.34666c-9.35733,-4.61283 -18.33053,-0.73354 -22.37286,7.43451c-4.19257,8.47162 -0.71115,18.10122 8.00201,22.45095c7.61698,3.80248 15.24338,7.58596 22.853,11.37156c-3.79102,15.12153 6.16034,39.61767 31.2359,51.21074c0,16.74829 0,33.57472 0,50.40113c0,46.49738 0.03455,92.99482 -0.04309,139.49207c-0.00989,5.92029 -0.95459,11.74252 -5.8602,15.9284c-4.93347,4.20972 -10.64996,4.70963 -16.40671,2.4014c-4.97882,-1.9963 -8.05664,-6.00122 -8.65256,-11.46197c-0.51474,-4.7172 -0.98376,-9.46933 -0.99337,-14.207c-0.07834,-38.66434 -0.33185,-77.33203 0.0906,-115.9919c0.18149,-16.60985 -4.9779,-31.14069 -14.08737,-44.50711c-12.17004,-17.85718 -29.19156,-29.0365 -50.0473,-35.07804c0,-20.59965 0,-41.25054 0,-61.90142c0,-13.33258 0.26376,-26.67147 -0.05478,-39.99644c-0.66772,-27.93358 -23.39505,-53.0588 -50.82004,-58.27527c64.84052,-0.37641 129.80622,-0.37641 194.81147,-0.37641c0,170.66667 0,341.33334 0,512c-40.37531,0 -80.68732,0 -121.46799,0z" id="svg_2"/>
  <path fill="none" d="m99.53134,1c-4.4865,1.9958 -9.6015,3.67043 -14.36902,6.04324c-20.15648,10.0319 -31.95415,26.42898 -36.11931,48.43397c-0.24363,1.28713 -0.0425,2.6591 -0.04251,3.99159c-0.00053,119.0951 -0.02259,238.19026 0.09459,357.28523c0.00395,4.02164 -1.12315,6.0357 -4.84232,7.72192c-6.86742,3.11362 -13.48078,6.82321 -20.04696,10.55384c-4.87939,2.77224 -7.31037,7.04534 -7.25651,12.89376c0.14725,15.98905 0.19381,31.98212 -0.00895,47.96994c-0.10323,8.13947 3.54696,13.38828 10.96436,16.75653c-8.89854,0.34998 -17.89236,0.34998 -26.89082,0.34998c-0.00463,-170.5434 -0.00463,-341.08679 -0.00463,-512c32.67737,0 65.3654,0 98.52208,0z" id="svg_3"/>
  <path fill="none" d="m246,33c18.82993,0 37.16251,-0.18771 55.48874,0.07254c10.48379,0.14887 20.69461,2.43497 27.19913,11.44896c3.43597,4.76156 6.97085,10.90445 7.0108,16.44855c0.74383,103.22702 0.97858,206.45778 1.29236,309.68782c0.06228,20.496 0.15835,40.99402 -0.06769,61.4877c-0.0853,7.73331 3.11462,12.89972 9.8949,16.23303c7.36331,3.61994 14.66672,7.36182 22.08874,11.09708c0,6.93219 0,13.91018 0,21.20633c-106.4548,0 -212.8462,0 -319.5724,0c0,-6.87073 0,-13.95111 0,-21.04801c8.31553,-4.47366 16.79671,-9.02814 25.26947,-13.59814c4.43641,-2.39295 5.88218,-6.52603 6.38045,-11.16788c0.1061,-0.98843 0.0155,-1.99795 0.0155,-2.99777c0.00001,-120.64426 -0.08946,-241.28865 0.09627,-361.93263c0.02791,-18.12952 7.19845,-29.65264 24.87085,-35.27254c4.11272,-1.30786 8.69069,-1.5856 13.05657,-1.59729c42.15853,-0.11297 84.31748,-0.06775 126.97631,-0.06775m59,141.5c0,-26.31653 0.0054,-52.63306 -0.00317,-78.94958c-0.00266,-8.23247 -6.24994,-14.54516 -14.41465,-14.54634c-54.46543,-0.00788 -108.93086,-0.00964 -163.3963,0.00209c-7.90451,0.00171 -14.17882,6.32609 -14.18076,14.2765c-0.01072,43.80553 -0.01047,87.61107 -0.00022,131.41659c0.00186,7.94677 6.27908,14.29262 14.16291,14.29436c54.46543,0.01209 108.93087,0.01006 163.39631,0.00243c8.1726,-0.00113 14.4274,-6.30649 14.43262,-14.5284c0.01077,-16.98921 0.00326,-33.97844 0.00326,-51.96765z" id="svg_4"/>
  <path fill="#000000" d="m305,175c0,17.48921 0.00751,34.47844 -0.00326,51.46765c-0.00522,8.22191 -6.26002,14.52727 -14.43262,14.5284c-54.46544,0.00763 -108.93088,0.00966 -163.39631,-0.00243c-7.88383,-0.00174 -14.16105,-6.34759 -14.16291,-14.29436c-0.01025,-43.80552 -0.0105,-87.61106 0.00022,-131.41659c0.00194,-7.95041 6.27625,-14.27479 14.18076,-14.2765c54.46544,-0.01173 108.93087,-0.00997 163.3963,-0.00209c8.16471,0.00118 14.41199,6.31387 14.41465,14.54634c0.00857,26.31652 0.00317,52.63305 0.00317,79.44958m-78.5,-62c-27.09401,0 -54.188,0 -81.21362,0c0,32.30867 0,64.04501 0,95.71426c42.68902,0 85.09108,0 127.42727,0c0,-32.02287 0,-63.75921 0,-95.71426c-15.26144,0 -30.23755,0 -46.21365,0z" id="svg_5"/>
  <path fill="none" d="m227,113c15.4761,0 30.45221,0 45.71365,0c0,31.95505 0,63.69139 0,95.71426c-42.33619,0 -84.73825,0 -127.42727,0c0,-31.66925 0,-63.40559 0,-95.71426c27.02562,0 54.11961,0 81.71362,0z" id="svg_6"/>
 </g>

</svg>
