<svg version="1.1" id="Layer_1" xmlns="http://www.w3.org/2000/svg" xmlns:xlink="http://www.w3.org/1999/xlink" x="0px" y="0px"
	 width="100%" viewBox="0 0 512 512" enable-background="new 0 0 512 512" xml:space="preserve">
<path fill="#FFFFFF" opacity="1.000000" stroke="none" 
	d="
M513.000000,38.000000 
	C513.000000,92.687561 513.000000,147.375122 512.644409,202.632904 
	C510.310944,210.010025 503.737396,214.933807 496.368591,214.986160 
	C487.953522,215.045944 479.537659,214.999985 471.252014,214.999985 
	C471.252014,300.340424 471.252014,385.025848 471.252014,470.000000 
	C481.961060,470.000000 492.427582,470.224365 502.876801,469.896698 
	C507.467316,469.752747 510.598389,471.366577 513.000000,475.000000 
	C513.000000,477.370575 513.000000,479.741119 512.645142,482.656006 
	C510.276855,487.326080 506.595734,488.007599 502.525421,488.007385 
	C338.762543,487.998718 174.999680,487.992249 11.236825,488.041534 
	C6.848780,488.042847 3.590839,486.348450 1.000000,483.000000 
	C1.000000,480.629425 1.000000,478.258881 1.352772,475.346222 
	C3.121991,470.998108 6.082480,469.949066 9.854378,469.974182 
	C20.791254,470.047058 31.728928,470.000000 42.669529,470.000000 
	C42.669529,384.740509 42.669529,299.936127 42.669529,215.000000 
	C35.189438,215.000000 28.028830,214.757553 20.891298,215.059891 
	C11.449969,215.459824 4.922071,211.487427 1.000000,203.000000 
	C1.000000,148.312439 1.000000,93.624878 1.355604,38.367088 
	C3.856580,30.420410 10.381963,26.000782 19.148041,26.000727 
	C177.129288,25.999729 335.110565,26.032835 493.091736,25.918049 
	C502.524353,25.911196 509.076019,29.500586 513.000000,38.000000 
M98.651787,215.000000 
	C94.077759,214.097733 95.009193,217.378265 95.008865,219.860001 
	C94.998138,301.691895 95.000000,383.523804 95.000000,465.355713 
	C95.000000,466.800446 95.000000,468.245148 95.000000,469.759644 
	C203.213150,469.759644 310.950287,469.759644 418.756836,469.759644 
	C418.756836,384.781677 418.756836,300.044250 418.756836,215.000000 
	C312.216858,215.000000 205.919769,215.000000 98.651787,215.000000 
M171.500000,44.000000 
	C120.739281,44.000000 69.978569,44.000000 19.289032,44.000000 
	C19.289032,95.311317 19.289032,146.048615 19.289032,196.713211 
	C177.978973,196.713211 336.379730,196.713211 494.710938,196.713211 
	C494.710938,145.688614 494.710938,94.951309 494.710938,44.000000 
	C387.114685,44.000000 279.807343,44.000000 171.500000,44.000000 
M61.000000,399.500000 
	C61.000000,422.928589 61.000000,446.357147 61.000000,469.709564 
	C66.651329,469.709564 71.723923,469.709564 76.713654,469.709564 
	C76.713654,384.685272 76.713654,299.951721 76.713654,215.290405 
	C71.350281,215.290405 66.277824,215.290405 61.000000,215.290405 
	C61.000000,276.553711 61.000000,337.526855 61.000000,399.500000 
M437.000000,443.500000 
	C437.000000,452.265076 437.000000,461.030182 437.000000,469.708191 
	C442.654083,469.708191 447.726593,469.708191 452.712280,469.708191 
	C452.712280,384.682495 452.712280,299.948914 452.712280,215.291809 
	C447.345947,215.291809 442.273438,215.291809 437.000000,215.291809 
	C437.000000,291.222260 437.000000,366.861145 437.000000,443.500000 
z"/>
<path fill="#FFFFFF" opacity="1.000000" stroke="none" 
	d="
M513.000000,37.531342 
	C509.076019,29.500586 502.524353,25.911196 493.091736,25.918049 
	C335.110565,26.032835 177.129288,25.999729 19.148041,26.000727 
	C10.381963,26.000782 3.856580,30.420410 1.355604,37.898430 
	C1.000000,25.675875 1.000000,13.351749 1.000000,1.044869 
	C171.666672,1.044869 342.333344,1.044869 513.000000,1.044869 
	C513.000000,13.080720 513.000000,25.071701 513.000000,37.531342 
z"/>
<path fill="#FFFFFF" opacity="1.000000" stroke="none" 
	d="
M1.000000,483.468658 
	C3.590839,486.348450 6.848780,488.042847 11.236825,488.041534 
	C174.999680,487.992249 338.762543,487.998718 502.525421,488.007385 
	C506.595734,488.007599 510.276855,487.326080 512.645142,483.100159 
	C513.000000,492.992340 513.000000,502.984711 513.000000,512.957520 
	C342.333313,512.957520 171.666656,512.957520 1.000000,512.957520 
	C1.000000,503.255829 1.000000,493.596588 1.000000,483.468658 
z"/>
<path fill="#FFFFFF" opacity="1.000000" stroke="none" 
	d="
M1.000000,203.468658 
	C4.922071,211.487427 11.449969,215.459824 20.891298,215.059891 
	C28.028830,214.757553 35.189438,215.000000 42.669529,215.000000 
	C42.669529,299.936127 42.669529,384.740509 42.669529,470.000000 
	C31.728928,470.000000 20.791254,470.047058 9.854378,469.974182 
	C6.082480,469.949066 3.121991,470.998108 1.352772,474.902069 
	C1.000000,384.645782 1.000000,294.291534 1.000000,203.468658 
z"/>
<path fill="#FFFFFF" opacity="1.000000" stroke="none" 
	d="
M513.000000,474.531342 
	C510.598389,471.366577 507.467316,469.752747 502.876801,469.896698 
	C492.427582,470.224365 481.961060,470.000000 471.252014,470.000000 
	C471.252014,385.025848 471.252014,300.340424 471.252014,214.999985 
	C479.537659,214.999985 487.953522,215.045944 496.368591,214.986160 
	C503.737396,214.933807 510.310944,210.010025 512.644409,203.101562 
	C513.000000,293.354218 513.000000,383.708466 513.000000,474.531342 
z"/>
<path fill="#FFFFFF" opacity="1.000000" stroke="none" 
	d="
M99.137222,215.000000 
	C205.919769,215.000000 312.216858,215.000000 418.756836,215.000000 
	C418.756836,300.044250 418.756836,384.781677 418.756836,469.759644 
	C310.950287,469.759644 203.213150,469.759644 95.000000,469.759644 
	C95.000000,468.245148 95.000000,466.800446 95.000000,465.355713 
	C95.000000,383.523804 94.998138,301.691895 95.008865,219.860001 
	C95.009193,217.378265 94.077759,214.097733 99.137222,215.000000 
z"/>
<path fill="#FFFFFF" opacity="1.000000" stroke="none" 
	d="
M172.000000,44.000000 
	C279.807343,44.000000 387.114685,44.000000 494.710938,44.000000 
	C494.710938,94.951309 494.710938,145.688614 494.710938,196.713211 
	C336.379730,196.713211 177.978973,196.713211 19.289032,196.713211 
	C19.289032,146.048615 19.289032,95.311317 19.289032,44.000000 
	C69.978569,44.000000 120.739281,44.000000 172.000000,44.000000 
M118.058716,83.528503 
	C113.656036,74.261879 106.282913,69.340973 96.077156,69.048515 
	C87.753052,68.809975 79.396141,68.634361 71.091347,69.100365 
	C62.367710,69.589882 55.180752,73.379410 49.739620,80.576813 
	C44.247669,87.841438 42.459698,95.648567 43.932922,104.593437 
	C45.730282,115.506325 51.756020,122.838150 61.765728,126.974693 
	C70.965752,130.776627 80.764511,130.415253 90.366882,129.830185 
	C96.349075,129.465698 103.256401,136.102371 102.833389,142.159546 
	C102.431473,147.914703 98.014023,153.976486 90.420067,153.997070 
	C84.921684,154.011963 79.410675,153.763809 73.927742,154.055252 
	C65.670723,154.494141 63.006390,153.670914 60.976955,143.992188 
	C60.081696,139.722534 55.343605,136.382233 51.407959,137.009766 
	C47.185471,137.683044 42.657730,142.869980 43.037281,146.845840 
	C44.497128,162.138107 56.012337,172.820297 70.327263,172.062027 
	C77.139519,171.701172 84.010170,172.341660 90.809509,171.874985 
	C95.053856,171.583694 99.463196,170.658661 103.367081,169.001633 
	C116.201584,163.553940 121.961082,151.784897 120.091042,137.527435 
	C118.396599,124.608818 111.268967,116.222862 99.110558,113.239204 
	C90.959145,111.238846 82.212196,111.673035 73.733986,110.989784 
	C72.134201,110.860863 70.342003,111.005531 68.986839,110.327713 
	C63.650372,107.658554 60.150967,101.642784 61.192223,97.480263 
	C62.860283,90.812042 67.864182,87.004936 74.974449,87.000664 
	C80.472870,86.997353 85.971298,86.999977 91.469719,87.000008 
	C99.955276,87.000046 101.422028,88.211670 103.007179,96.530548 
	C103.784065,100.607590 108.251686,104.290131 112.067459,103.998680 
	C116.961136,103.624893 121.123085,99.969742 120.878670,95.397438 
	C120.675667,91.599930 119.410873,87.859177 118.058716,83.528503 
M344.035248,141.405975 
	C349.543854,150.285950 355.084229,159.146439 360.545288,168.055542 
	C362.703064,171.575714 366.323547,172.935425 369.591797,171.739792 
	C372.436340,170.699188 375.805511,167.869461 376.537750,165.176376 
	C377.283539,162.433578 375.669067,158.567154 374.083618,155.759964 
	C368.672516,146.179016 362.819183,136.847824 357.255768,127.622215 
	C359.124329,126.725723 360.833649,126.162109 362.256500,125.182411 
	C373.578857,117.386627 378.618713,107.006104 376.073730,93.054039 
	C373.596069,79.470917 362.923920,70.336754 350.410126,69.220093 
	C338.849518,68.188492 327.123627,68.923180 315.472168,69.040794 
	C311.179260,69.084122 308.050293,72.185463 308.039337,76.478889 
	C307.964935,105.776779 307.970001,135.075012 308.033386,164.372955 
	C308.042755,168.694290 311.106262,171.670135 315.323975,171.999390 
	C321.727356,172.499283 325.923859,168.521240 325.978333,161.648407 
	C326.061035,151.211227 325.999969,140.772919 325.999969,130.170364 
	C330.203674,130.170364 333.966034,130.170364 337.267426,130.170364 
	C339.625244,133.859497 341.796539,137.256790 344.035248,141.405975 
M285.762268,171.768265 
	C291.386169,169.001556 292.953308,164.303787 290.063171,157.237595 
	C284.910889,144.640640 280.065002,131.918716 274.974579,119.296013 
	C268.866089,104.148811 262.636841,89.050323 256.457611,73.931648 
	C254.765152,69.790649 251.429871,68.594528 247.327896,69.021996 
	C243.620880,69.408295 241.233643,71.324654 239.916122,75.004303 
	C237.812973,80.878143 235.304108,86.606850 232.961807,92.394905 
	C224.073227,114.359383 215.133087,136.303207 206.325653,158.300171 
	C203.951981,164.228516 206.057266,169.644501 211.079697,171.596695 
	C216.233246,173.599854 221.158066,170.997940 223.635880,164.807648 
	C225.997025,158.908859 228.219101,152.954391 230.459930,147.134491 
	C242.721069,147.134491 254.694931,147.134491 266.534363,147.134491 
	C268.736298,152.810257 270.947174,158.297745 272.996246,163.845016 
	C275.487244,170.588715 277.494537,172.019058 285.762268,171.768265 
M439.680420,87.000275 
	C446.839142,87.000153 454.010742,87.268433 461.153046,86.925873 
	C468.584503,86.569458 470.605774,82.890358 470.920441,77.300995 
	C471.179596,72.698021 466.402527,69.000732 460.905487,69.000458 
	C438.763367,68.999352 416.621185,68.984329 394.479156,69.033226 
	C392.905701,69.036697 391.218781,69.235535 389.782104,69.824928 
	C385.664642,71.514099 383.763306,75.414993 385.094055,80.443382 
	C386.230286,84.736664 389.584351,86.925362 394.029755,86.974045 
	C402.285156,87.064438 410.542267,86.999954 419.000000,86.999954 
	C419.000000,89.218185 419.000000,90.863464 419.000000,92.508743 
	C419.000000,115.982727 418.992004,139.456711 419.005829,162.930695 
	C419.009094,168.500183 422.443481,171.975693 427.874176,172.000000 
	C433.538361,172.025360 436.979156,168.035538 436.988190,161.213943 
	C437.019043,137.906494 436.969818,114.598816 437.073364,91.291779 
	C437.079712,89.860092 438.142395,88.433098 439.680420,87.000275 
M199.422760,87.000000 
	C201.421616,86.999886 203.424835,87.085167 205.418488,86.983139 
	C210.723343,86.711632 215.027603,82.607643 214.997864,77.941689 
	C214.964844,72.762100 210.763596,69.009384 204.901276,69.005684 
	C182.580307,68.991592 160.259308,68.985687 137.938446,69.034019 
	C136.534424,69.037056 135.047180,69.316269 133.743134,69.832184 
	C129.035751,71.694595 128.226303,75.535179 129.018066,79.976631 
	C129.813507,84.438705 132.943832,86.919952 138.027908,86.975594 
	C146.286789,87.065987 154.547363,86.999962 163.000000,86.999962 
	C163.000000,89.065544 163.000000,90.544662 163.000000,92.023788 
	C163.000015,115.843925 162.984741,139.664078 163.012665,163.484192 
	C163.018372,168.353821 165.672867,171.517654 169.942657,171.998810 
	C175.459824,172.620514 178.858261,170.391373 179.983337,165.203873 
	C180.494537,162.846848 180.948532,160.418289 180.956726,158.020554 
	C181.030685,136.366135 181.000000,114.711357 181.000000,93.056686 
	C181.000000,91.120506 181.000000,89.184326 181.000000,87.000000 
	C187.168884,87.000000 192.805969,87.000000 199.422760,87.000000 
z"/>
<path fill="#FFFFFF" opacity="1.000000" stroke="none" 
	d="
M61.000000,399.000000 
	C61.000000,337.526855 61.000000,276.553711 61.000000,215.290405 
	C66.277824,215.290405 71.350281,215.290405 76.713654,215.290405 
	C76.713654,299.951721 76.713654,384.685272 76.713654,469.709564 
	C71.723923,469.709564 66.651329,469.709564 61.000000,469.709564 
	C61.000000,446.357147 61.000000,422.928589 61.000000,399.000000 
z"/>
<path fill="#FFFFFF" opacity="1.000000" stroke="none" 
	d="
M437.000000,443.000000 
	C437.000000,366.861145 437.000000,291.222260 437.000000,215.291809 
	C442.273438,215.291809 447.345947,215.291809 452.712280,215.291809 
	C452.712280,299.948914 452.712280,384.682495 452.712280,469.708191 
	C447.726593,469.708191 442.654083,469.708191 437.000000,469.708191 
	C437.000000,461.030182 437.000000,452.265076 437.000000,443.000000 
z"/>
<path fill="#FFFFFF" opacity="1.000000" stroke="none" 
	d="
M118.337578,83.810898 
	C119.410873,87.859177 120.675667,91.599930 120.878670,95.397438 
	C121.123085,99.969742 116.961136,103.624893 112.067459,103.998680 
	C108.251686,104.290131 103.784065,100.607590 103.007179,96.530548 
	C101.422028,88.211670 99.955276,87.000046 91.469719,87.000008 
	C85.971298,86.999977 80.472870,86.997353 74.974449,87.000664 
	C67.864182,87.004936 62.860283,90.812042 61.192223,97.480263 
	C60.150967,101.642784 63.650372,107.658554 68.986839,110.327713 
	C70.342003,111.005531 72.134201,110.860863 73.733986,110.989784 
	C82.212196,111.673035 90.959145,111.238846 99.110558,113.239204 
	C111.268967,116.222862 118.396599,124.608818 120.091042,137.527435 
	C121.961082,151.784897 116.201584,163.553940 103.367081,169.001633 
	C99.463196,170.658661 95.053856,171.583694 90.809509,171.874985 
	C84.010170,172.341660 77.139519,171.701172 70.327263,172.062027 
	C56.012337,172.820297 44.497128,162.138107 43.037281,146.845840 
	C42.657730,142.869980 47.185471,137.683044 51.407959,137.009766 
	C55.343605,136.382233 60.081696,139.722534 60.976955,143.992188 
	C63.006390,153.670914 65.670723,154.494141 73.927742,154.055252 
	C79.410675,153.763809 84.921684,154.011963 90.420067,153.997070 
	C98.014023,153.976486 102.431473,147.914703 102.833389,142.159546 
	C103.256401,136.102371 96.349075,129.465698 90.366882,129.830185 
	C80.764511,130.415253 70.965752,130.776627 61.765728,126.974693 
	C51.756020,122.838150 45.730282,115.506325 43.932922,104.593437 
	C42.459698,95.648567 44.247669,87.841438 49.739620,80.576813 
	C55.180752,73.379410 62.367710,69.589882 71.091347,69.100365 
	C79.396141,68.634361 87.753052,68.809975 96.077156,69.048515 
	C106.282913,69.340973 113.656036,74.261879 118.337578,83.810898 
z"/>
<path fill="#FFFFFF" opacity="1.000000" stroke="none" 
	d="
M344.001526,141.030029 
	C341.796539,137.256790 339.625244,133.859497 337.267426,130.170364 
	C333.966034,130.170364 330.203674,130.170364 325.999969,130.170364 
	C325.999969,140.772919 326.061035,151.211227 325.978333,161.648407 
	C325.923859,168.521240 321.727356,172.499283 315.323975,171.999390 
	C311.106262,171.670135 308.042755,168.694290 308.033386,164.372955 
	C307.970001,135.075012 307.964935,105.776779 308.039337,76.478889 
	C308.050293,72.185463 311.179260,69.084122 315.472168,69.040794 
	C327.123627,68.923180 338.849518,68.188492 350.410126,69.220093 
	C362.923920,70.336754 373.596069,79.470917 376.073730,93.054039 
	C378.618713,107.006104 373.578857,117.386627 362.256500,125.182411 
	C360.833649,126.162109 359.124329,126.725723 357.255768,127.622215 
	C362.819183,136.847824 368.672516,146.179016 374.083618,155.759964 
	C375.669067,158.567154 377.283539,162.433578 376.537750,165.176376 
	C375.805511,167.869461 372.436340,170.699188 369.591797,171.739792 
	C366.323547,172.935425 362.703064,171.575714 360.545288,168.055542 
	C355.084229,159.146439 349.543854,150.285950 344.001526,141.030029 
M357.701233,94.168663 
	C355.601593,90.195000 352.207092,87.446243 347.907349,87.151253 
	C340.694855,86.656456 333.423737,87.015915 326.284119,87.015915 
	C326.284119,95.663162 326.284119,103.723343 326.284119,111.999550 
	C332.529327,111.999550 338.500458,112.190094 344.454834,111.955544 
	C353.729584,111.590218 361.536560,103.654404 357.701233,94.168663 
z"/>
<path fill="#FFFFFF" opacity="1.000000" stroke="none" 
	d="
M285.363129,171.876068 
	C277.494537,172.019058 275.487244,170.588715 272.996246,163.845016 
	C270.947174,158.297745 268.736298,152.810257 266.534363,147.134491 
	C254.694931,147.134491 242.721069,147.134491 230.459930,147.134491 
	C228.219101,152.954391 225.997025,158.908859 223.635880,164.807648 
	C221.158066,170.997940 216.233246,173.599854 211.079697,171.596695 
	C206.057266,169.644501 203.951981,164.228516 206.325653,158.300171 
	C215.133087,136.303207 224.073227,114.359383 232.961807,92.394905 
	C235.304108,86.606850 237.812973,80.878143 239.916122,75.004303 
	C241.233643,71.324654 243.620880,69.408295 247.327896,69.021996 
	C251.429871,68.594528 254.765152,69.790649 256.457611,73.931648 
	C262.636841,89.050323 268.866089,104.148811 274.974579,119.296013 
	C280.065002,131.918716 284.910889,144.640640 290.063171,157.237595 
	C292.953308,164.303787 291.386169,169.001556 285.363129,171.876068 
M254.465729,117.974464 
	C252.553192,113.052231 250.640671,108.129997 248.460892,102.519974 
	C244.793091,111.628586 241.372757,120.122620 237.887207,128.778625 
	C245.124741,128.778625 251.829834,128.778625 258.775665,128.778625 
	C257.435974,125.204163 256.199310,121.904572 254.465729,117.974464 
z"/>
<path fill="#FFFFFF" opacity="1.000000" stroke="none" 
	d="
M439.197021,87.002106 
	C438.142395,88.433098 437.079712,89.860092 437.073364,91.291779 
	C436.969818,114.598816 437.019043,137.906494 436.988190,161.213943 
	C436.979156,168.035538 433.538361,172.025360 427.874176,172.000000 
	C422.443481,171.975693 419.009094,168.500183 419.005829,162.930695 
	C418.992004,139.456711 419.000000,115.982727 419.000000,92.508743 
	C419.000000,90.863464 419.000000,89.218185 419.000000,86.999954 
	C410.542267,86.999954 402.285156,87.064438 394.029755,86.974045 
	C389.584351,86.925362 386.230286,84.736664 385.094055,80.443382 
	C383.763306,75.414993 385.664642,71.514099 389.782104,69.824928 
	C391.218781,69.235535 392.905701,69.036697 394.479156,69.033226 
	C416.621185,68.984329 438.763367,68.999352 460.905487,69.000458 
	C466.402527,69.000732 471.179596,72.698021 470.920441,77.300995 
	C470.605774,82.890358 468.584503,86.569458 461.153046,86.925873 
	C454.010742,87.268433 446.839142,87.000153 439.197021,87.002106 
z"/>
<path fill="#FFFFFF" opacity="1.000000" stroke="none" 
	d="
M198.932907,87.000000 
	C192.805969,87.000000 187.168884,87.000000 181.000000,87.000000 
	C181.000000,89.184326 181.000000,91.120506 181.000000,93.056686 
	C181.000000,114.711357 181.030685,136.366135 180.956726,158.020554 
	C180.948532,160.418289 180.494537,162.846848 179.983337,165.203873 
	C178.858261,170.391373 175.459824,172.620514 169.942657,171.998810 
	C165.672867,171.517654 163.018372,168.353821 163.012665,163.484192 
	C162.984741,139.664078 163.000015,115.843925 163.000000,92.023788 
	C163.000000,90.544662 163.000000,89.065544 163.000000,86.999962 
	C154.547363,86.999962 146.286789,87.065987 138.027908,86.975594 
	C132.943832,86.919952 129.813507,84.438705 129.018066,79.976631 
	C128.226303,75.535179 129.035751,71.694595 133.743134,69.832184 
	C135.047180,69.316269 136.534424,69.037056 137.938446,69.034019 
	C160.259308,68.985687 182.580307,68.991592 204.901276,69.005684 
	C210.763596,69.009384 214.964844,72.762100 214.997864,77.941689 
	C215.027603,82.607643 210.723343,86.711632 205.418488,86.983139 
	C203.424835,87.085167 201.421616,86.999886 198.932907,87.000000 
z"/>
<path fill="#FFFFFF" opacity="1.000000" stroke="none" 
	d="
M357.840668,94.546349 
	C361.536560,103.654404 353.729584,111.590218 344.454834,111.955544 
	C338.500458,112.190094 332.529327,111.999550 326.284119,111.999550 
	C326.284119,103.723343 326.284119,95.663162 326.284119,87.015915 
	C333.423737,87.015915 340.694855,86.656456 347.907349,87.151253 
	C352.207092,87.446243 355.601593,90.195000 357.840668,94.546349 
z"/>
<path fill="#FFFFFF" opacity="1.000000" stroke="none" 
	d="
M254.714172,118.289719 
	C256.199310,121.904572 257.435974,125.204163 258.775665,128.778625 
	C251.829834,128.778625 245.124741,128.778625 237.887207,128.778625 
	C241.372757,120.122620 244.793091,111.628586 248.460892,102.519974 
	C250.640671,108.129997 252.553192,113.052231 254.714172,118.289719 
z"/>
</svg>
