<svg width="512" height="512" xmlns="http://www.w3.org/2000/svg" xml:space="preserve" enable-background="new 0 0 512 512" version="1.1">
 <g>
  <title>Layer 1</title>
  <path id="svg_1" d="m513,38c0,54.68756 0,109.37512 -0.35559,164.6329c-2.33347,7.37713 -8.90701,12.30091 -16.27582,12.35326c-8.41507,0.05978 -16.83093,0.01383 -25.11658,0.01383c0,85.34043 0,170.02586 0,255.00001c10.70905,0 21.17557,0.22436 31.62479,-0.1033c4.59052,-0.14395 7.72159,1.46988 10.1232,5.1033c0,2.37057 0,4.74112 -0.35486,7.65601c-2.36828,4.67007 -6.04941,5.35159 -10.11972,5.35137c-163.76288,-0.00866 -327.52574,-0.01513 -491.28859,0.03415c-4.38805,0.00132 -7.64599,-1.69308 -10.23683,-5.04153c0,-2.37057 0,-4.74112 0.35277,-7.65378c1.76922,-4.34811 4.72971,-5.39715 8.50161,-5.37204c10.93687,0.07288 21.87455,0.02582 32.81515,0.02582c0,-85.25949 0,-170.06387 0,-255c-7.48009,0 -14.6407,-0.24245 -21.77823,0.05989c-9.44133,0.39993 -15.96923,-3.57246 -19.8913,-12.05989c0,-54.68756 0,-109.37512 0.3556,-164.63291c2.50098,-7.94668 9.02636,-12.36631 17.79244,-12.36636c157.98125,-0.001 315.96253,0.0321 473.9437,-0.08268c9.43261,-0.00685 15.98428,3.58254 19.90826,12.08195m-414.34821,177c-4.57403,-0.90227 -3.6426,2.37826 -3.64292,4.86c-0.01073,81.83189 -0.00887,163.6638 -0.00887,245.49571c0,1.44474 0,2.88944 0,4.40393c108.21315,0 215.95029,0 323.75684,0c0,-84.97796 0,-169.71539 0,-254.75964c-106.53998,0 -212.83707,0 -320.10505,0m72.84821,-171c-50.76072,0 -101.52143,0 -152.21097,0c0,51.31132 0,102.04862 0,152.71321c158.68994,0 317.0907,0 475.42191,0c0,-51.0246 0,-101.7619 0,-152.71321c-107.59625,0 -214.9036,0 -323.21094,0m-110.5,355.5c0,23.42859 0,46.85715 0,70.20956c5.65133,0 10.72392,0 15.71365,0c0,-85.02429 0,-169.75784 0,-254.41916c-5.36337,0 -10.43583,0 -15.71365,0c0,61.26331 0,122.23646 0,184.2096m376,44c0,8.76508 0,17.53018 0,26.20819c5.65408,0 10.72659,0 15.71228,0c0,-85.02569 0,-169.75928 0,-254.41638c-5.36633,0 -10.43884,0 -15.71228,0c0,75.93045 0,151.56934 0,228.20819z" fill="#ffffff"/>
  <path id="svg_2" d="m513,37.53134c-3.92398,-8.03075 -10.47565,-11.62014 -19.90826,-11.61329c-157.98117,0.11478 -315.96245,0.08168 -473.9437,0.08268c-8.76608,0.00005 -15.29146,4.41968 -17.79244,11.8977c-0.3556,-12.22255 -0.3556,-24.54668 -0.3556,-36.85356c170.66667,0 341.33334,0 512,0c0,12.03585 0,24.02683 0,36.48647z" fill="none"/>
  <path id="svg_3" d="m1,483.46866c2.59084,2.87979 5.84878,4.57419 10.23682,4.57287c163.76286,-0.04928 327.52572,-0.04281 491.2886,-0.03415c4.07031,0.00022 7.75144,-0.6813 10.11972,-4.90722c0.35486,9.89218 0.35486,19.88455 0.35486,29.85736c-170.66669,0 -341.33334,0 -512,0c0,-9.70169 0,-19.36093 0,-29.48886z" fill="none"/>
  <path id="svg_4" d="m1,203.46866c3.92207,8.01877 10.44997,11.99116 19.8913,11.59123c7.13753,-0.30234 14.29814,-0.05989 21.77823,-0.05989c0,84.93613 0,169.74051 0,255c-10.9406,0 -21.87828,0.04706 -32.81515,-0.02582c-3.7719,-0.02511 -6.73239,1.02393 -8.50161,4.92789c-0.35277,-90.25629 -0.35277,-180.61054 -0.35277,-271.43341z" fill="none"/>
  <path id="svg_5" d="m513,474.53134c-2.40161,-3.16476 -5.53268,-4.77859 -10.1232,-4.63464c-10.44922,0.32766 -20.91574,0.1033 -31.62479,0.1033c0,-84.97415 0,-169.65958 0,-255.00001c8.28565,0 16.70151,0.04595 25.11658,-0.01383c7.36881,-0.05235 13.94235,-4.97613 16.27582,-11.8846c0.35559,90.25266 0.35559,180.60691 0.35559,271.42978z" fill="none"/>
  <path id="svg_6" d="m99.13722,215c106.78255,0 213.07964,0 319.61962,0c0,85.04425 0,169.78168 0,254.75964c-107.80655,0 -215.54369,0 -323.75684,0c0,-1.51449 0,-2.95919 0,-4.40393c0,-81.83191 -0.00186,-163.66382 0.00887,-245.49571c0.00032,-2.48174 -0.93111,-5.76227 4.12835,-4.86z" fill="none"/>
  <path id="svg_7" d="m172,44c107.80734,0 215.11469,0 322.71094,0c0,50.95131 0,101.68861 0,152.71321c-158.33121,0 -316.73197,0 -475.42191,0c0,-50.66459 0,-101.40189 0,-152.71321c50.68954,0 101.45025,0 152.71097,0m-53.94128,39.5285c-4.40268,-9.26662 -11.77581,-14.18753 -21.98156,-14.47999c-8.32411,-0.23854 -16.68102,-0.41415 -24.98581,0.05185c-8.72364,0.48952 -15.9106,4.27905 -21.35173,11.47645c-5.49195,7.26463 -7.27992,15.07176 -5.8067,24.01663c1.79736,10.91289 7.8231,18.24471 17.83281,22.38125c9.20002,3.80194 18.99878,3.44056 28.60115,2.8555c5.98219,-0.36449 12.88952,6.27218 12.46651,12.32936c-0.40192,5.75515 -4.81937,11.81694 -12.41332,11.83752c-5.49839,0.01489 -11.0094,-0.23326 -16.49233,0.05818c-8.25702,0.43889 -10.92135,-0.38434 -12.95079,-10.06306c-0.89525,-4.26966 -5.63335,-7.60996 -9.56899,-6.98242c-4.22249,0.67327 -8.75023,5.86021 -8.37068,9.83607c1.45985,15.29227 12.97506,25.97446 27.28998,25.21619c6.81226,-0.36086 13.68291,0.27963 20.48225,-0.18704c4.24435,-0.2913 8.65369,-1.21633 12.55757,-2.87336c12.8345,-5.44769 18.594,-17.21673 16.72396,-31.4742c-1.69444,-12.91861 -8.82207,-21.30457 -20.98048,-24.28823c-8.15141,-2.00035 -16.89836,-1.56617 -25.37657,-2.24942c-1.59979,-0.12892 -3.39199,0.01575 -4.74715,-0.66207c-5.33647,-2.66916 -8.83587,-8.68493 -7.79462,-12.84745c1.66806,-6.66822 6.67196,-10.47532 13.78223,-10.4796c5.49842,-0.00331 10.99685,-0.00068 16.49527,-0.00065c8.48556,0.00004 9.95231,1.21166 11.53746,9.53054c0.77688,4.07704 5.24451,7.75958 9.06028,7.46813c4.89368,-0.37379 9.05563,-4.02894 8.81121,-8.60124c-0.203,-3.79751 -1.4678,-7.53826 -2.81995,-11.86894m225.97653,57.87748c5.5086,8.87997 11.04898,17.74046 16.51004,26.64956c2.15777,3.52017 5.77826,4.87989 9.04651,3.68425c2.84454,-1.0406 6.21371,-3.87033 6.94595,-6.56341c0.74579,-2.7428 -0.86868,-6.60923 -2.45413,-9.41642c-5.4111,-9.58094 -11.26444,-18.91214 -16.82785,-28.13775c1.86856,-0.89649 3.57788,-1.4601 5.00073,-2.4398c11.32236,-7.79578 16.36221,-18.17631 13.81723,-32.12837c-2.47766,-13.58312 -13.14981,-22.71729 -25.6636,-23.83395c-11.56061,-1.0316 -23.2865,-0.29691 -34.93796,-0.1793c-4.29291,0.04333 -7.42188,3.14467 -7.43283,7.4381c-0.0744,29.29789 -0.06934,58.59612 -0.00595,87.89406c0.00936,4.32134 3.07287,7.29718 7.29059,7.62644c6.40338,0.49989 10.59988,-3.47815 10.65435,-10.35098c0.08271,-10.43718 0.02164,-20.87549 0.02164,-31.47805c4.2037,0 7.96606,0 11.26746,0c2.35781,3.68914 4.52911,7.08643 6.76782,11.23562m-58.27298,30.36229c5.6239,-2.76671 7.19104,-7.46448 4.3009,-14.53068c-5.15228,-12.59695 -9.99817,-25.31887 -15.08859,-37.94158c-6.10849,-15.1472 -12.33774,-30.24569 -18.51697,-45.36436c-1.69246,-4.141 -5.02774,-5.33712 -9.12971,-4.90965c-3.70702,0.38629 -6.09426,2.30265 -7.41178,5.9823c-2.10315,5.87384 -4.61201,11.60255 -6.95431,17.3906c-8.88858,21.96448 -17.82872,43.90831 -26.63616,65.90527c-2.37367,5.92835 -0.26838,11.34433 4.75405,13.29653c5.15355,2.00315 10.07837,-0.59876 12.55618,-6.78905c2.36115,-5.89879 4.58322,-11.85326 6.82405,-17.67316c12.26114,0 24.235,0 36.07443,0c2.20194,5.67577 4.41281,11.16325 6.46189,16.71053c2.49099,6.7437 4.49829,8.17404 12.76602,7.92325m153.91815,-84.76799c7.15872,-0.00013 14.33032,0.26815 21.47263,-0.07441c7.43145,-0.35641 9.45272,-4.03551 9.76739,-9.62487c0.25916,-4.60298 -4.51791,-8.30027 -10.01495,-8.30054c-22.14212,-0.00111 -44.2843,-0.01613 -66.42633,0.03277c-1.57346,0.00347 -3.26038,0.2023 -4.69706,0.7917c-4.11746,1.68917 -6.01879,5.59006 -4.68804,10.61845c1.13623,4.29328 4.49029,6.48198 8.9357,6.53067c8.2554,0.09039 16.51251,0.0259 24.97024,0.0259c0,2.21824 0,3.86351 0,5.50879c0,23.47399 -0.008,46.94797 0.00583,70.42196c0.00326,5.56948 3.43765,9.04499 8.86835,9.0693c5.66418,0.02536 9.10498,-3.96446 9.11401,-10.78606c0.03085,-23.30745 -0.01837,-46.61512 0.08517,-69.92216c0.00635,-1.43169 1.06904,-2.85868 2.60706,-4.2915m-240.25766,-0.00028c1.99886,-0.00011 4.00208,0.08517 5.99573,-0.01686c5.30485,-0.27151 9.60911,-4.3755 9.57937,-9.04145c-0.03302,-5.17959 -4.23426,-8.93231 -10.09658,-8.93601c-22.32097,-0.01409 -44.64197,-0.01999 -66.96283,0.02834c-1.40403,0.00304 -2.89127,0.28225 -4.19532,0.79816c-4.70738,1.86242 -5.51683,5.703 -4.72506,10.14445c0.79544,4.46207 3.92576,6.94332 9.00984,6.99896c8.25888,0.0904 16.51945,0.02437 24.97209,0.02437c0,2.06558 0,3.5447 0,5.02383c0.00001,23.82013 -0.01526,47.64029 0.01266,71.4604c0.00571,4.86963 2.66021,8.03346 6.93,8.51462c5.51716,0.6217 8.9156,-1.60744 10.04068,-6.79494c0.5112,-2.35702 0.96519,-4.78558 0.97339,-7.18332c0.07396,-21.65441 0.04327,-43.30919 0.04327,-64.96386c0,-1.93618 0,-3.87236 0,-6.05669c6.16888,0 11.80597,0 18.42276,0z" fill="none"/>
  <path id="svg_8" d="m61,399c0,-61.47314 0,-122.44629 0,-183.7096c5.27782,0 10.35028,0 15.71365,0c0,84.66132 0,169.39487 0,254.41916c-4.98973,0 -10.06232,0 -15.71365,0c0,-23.35241 0,-46.78097 0,-70.70956z" fill="none"/>
  <path id="svg_9" d="m438,443c0,-76.13885 0,-151.77774 0,-227.70819c5.27344,0 10.34595,0 15.71228,0c0,84.6571 0,169.39069 0,254.41638c-4.98569,0 -10.0582,0 -15.71228,0c0,-8.67801 0,-17.44311 0,-26.70819z" fill="none"/>
  <path id="svg_10" d="m118.33758,83.8109c1.07329,4.04828 2.33809,7.78903 2.54109,11.58654c0.24442,4.5723 -3.91753,8.22745 -8.81121,8.60124c-3.81577,0.29145 -8.2834,-3.39109 -9.06028,-7.46813c-1.58515,-8.31888 -3.0519,-9.5305 -11.53746,-9.53054c-5.49842,-0.00003 -10.99685,-0.00266 -16.49527,0.00065c-7.11027,0.00428 -12.11417,3.81138 -13.78223,10.4796c-1.04125,4.16252 2.45815,10.17829 7.79462,12.84745c1.35516,0.67782 3.14736,0.53315 4.74715,0.66207c8.47821,0.68325 17.22516,0.24907 25.37657,2.24942c12.15841,2.98366 19.28604,11.36962 20.98048,24.28823c1.87004,14.25747 -3.88946,26.02651 -16.72396,31.4742c-3.90388,1.65703 -8.31322,2.58206 -12.55757,2.87336c-6.79934,0.46667 -13.66999,-0.17382 -20.48225,0.18704c-14.31492,0.75827 -25.83013,-9.92392 -27.28998,-25.21619c-0.37955,-3.97586 4.14819,-9.1628 8.37068,-9.83607c3.93564,-0.62754 8.67374,2.71276 9.56899,6.98242c2.02944,9.67872 4.69377,10.50195 12.95079,10.06306c5.48293,-0.29144 10.99394,-0.04329 16.49233,-0.05818c7.59395,-0.02058 12.0114,-6.08237 12.41332,-11.83752c0.42301,-6.05718 -6.48432,-12.69385 -12.46651,-12.32936c-9.60237,0.58506 -19.40113,0.94644 -28.60115,-2.8555c-10.00971,-4.13654 -16.03545,-11.46836 -17.83281,-22.38125c-1.47322,-8.94487 0.31475,-16.752 5.8067,-24.01663c5.44113,-7.1974 12.62809,-10.98693 21.35173,-11.47645c8.30479,-0.466 16.6617,-0.29039 24.98581,-0.05185c10.20575,0.29246 17.57888,5.21337 22.26042,14.76239z" fill="#ffffff"/>
  <path id="svg_11" d="m344.00153,141.03003c-2.20499,-3.77324 -4.37629,-7.17053 -6.7341,-10.85967c-3.3014,0 -7.06376,0 -11.26746,0c0,10.60256 0.06107,21.04087 -0.02164,31.47805c-0.05447,6.87283 -4.25097,10.85087 -10.65435,10.35098c-4.21772,-0.32926 -7.28123,-3.3051 -7.29059,-7.62644c-0.06339,-29.29794 -0.06845,-58.59617 0.00595,-87.89406c0.01095,-4.29343 3.13992,-7.39477 7.43283,-7.4381c11.65146,-0.11761 23.37735,-0.8523 34.93796,0.1793c12.51379,1.11666 23.18594,10.25083 25.6636,23.83395c2.54498,13.95206 -2.49487,24.33259 -13.81723,32.12837c-1.42285,0.9797 -3.13217,1.54331 -5.00073,2.4398c5.56341,9.22561 11.41675,18.55681 16.82785,28.13775c1.58545,2.80719 3.19992,6.67362 2.45413,9.41642c-0.73224,2.69308 -4.10141,5.52281 -6.94595,6.56341c-3.26825,1.19564 -6.88874,-0.16408 -9.04651,-3.68425c-5.46106,-8.9091 -11.00144,-17.76959 -16.54376,-27.02551m13.6997,-46.86137c-2.09964,-3.97366 -5.49414,-6.72242 -9.79388,-7.01741c-7.21249,-0.49479 -14.48361,-0.13533 -21.62323,-0.13533c0,8.64724 0,16.70742 0,24.98363c6.24521,0 12.21634,0.19054 18.17071,-0.04401c9.27475,-0.36532 17.08173,-8.30114 13.2464,-17.78688z" fill="#ffffff"/>
  <path id="svg_12" d="m285.36313,171.87607c-7.86859,0.14299 -9.87589,-1.28735 -12.36688,-8.03105c-2.04908,-5.54728 -4.25995,-11.03476 -6.46189,-16.71053c-11.83943,0 -23.81329,0 -36.07443,0c-2.24083,5.8199 -4.4629,11.77437 -6.82405,17.67316c-2.47781,6.19029 -7.40263,8.7922 -12.55618,6.78905c-5.02243,-1.9522 -7.12772,-7.36818 -4.75405,-13.29653c8.80744,-21.99696 17.74758,-43.94079 26.63616,-65.90527c2.3423,-5.78805 4.85116,-11.51676 6.95431,-17.3906c1.31752,-3.67965 3.70476,-5.59601 7.41178,-5.9823c4.10197,-0.42747 7.43725,0.76865 9.12971,4.90965c6.17923,15.11867 12.40848,30.21716 18.51697,45.36436c5.09042,12.62271 9.93631,25.34463 15.08859,37.94158c2.89014,7.0662 1.323,11.76397 -4.70004,14.63848m-30.8974,-53.90161c-1.91254,-4.92223 -3.82506,-9.84446 -6.00484,-15.45449c-3.6678,9.10862 -7.08813,17.60265 -10.57368,26.25866c7.23753,0 13.94262,0 20.88846,0c-1.3397,-3.57447 -2.57636,-6.87406 -4.30994,-10.80417z" fill="#ffffff"/>
  <path id="svg_13" d="m439.19702,87.00211c-1.05462,1.43099 -2.11731,2.85798 -2.12366,4.28967c-0.10354,23.30704 -0.05432,46.61471 -0.08517,69.92216c-0.00903,6.8216 -3.44983,10.81142 -9.11401,10.78606c-5.4307,-0.02431 -8.86509,-3.49982 -8.86835,-9.0693c-0.01383,-23.47399 -0.00583,-46.94797 -0.00583,-70.42196c0,-1.64528 0,-3.29055 0,-5.50879c-8.45773,0 -16.71484,0.06449 -24.97024,-0.0259c-4.44541,-0.04869 -7.79947,-2.23739 -8.9357,-6.53067c-1.33075,-5.02839 0.57058,-8.92928 4.68804,-10.61845c1.43668,-0.5894 3.1236,-0.78823 4.69706,-0.7917c22.14203,-0.0489 44.28421,-0.03388 66.42633,-0.03277c5.49704,0.00027 10.27411,3.69756 10.01495,8.30054c-0.31467,5.58936 -2.33594,9.26846 -9.76739,9.62487c-7.14231,0.34256 -14.31391,0.07428 -21.95603,0.07624z" fill="#ffffff"/>
  <path id="svg_14" d="m198.93291,87c-6.12694,0 -11.76403,0 -17.93291,0c0,2.18433 0,4.12051 0,6.05669c0,21.65467 0.03069,43.30945 -0.04327,64.96386c-0.0082,2.39774 -0.46219,4.8263 -0.97339,7.18332c-1.12508,5.1875 -4.52352,7.41664 -10.04068,6.79494c-4.26979,-0.48116 -6.92429,-3.64499 -6.93,-8.51462c-0.02792,-23.82011 -0.01265,-47.64027 -0.01266,-71.4604c0,-1.47913 0,-2.95825 0,-5.02383c-8.45264,0 -16.71321,0.06603 -24.97209,-0.02437c-5.08408,-0.05564 -8.2144,-2.53689 -9.00984,-6.99896c-0.79177,-4.44145 0.01768,-8.28203 4.72506,-10.14445c1.30405,-0.51591 2.79129,-0.79512 4.19532,-0.79816c22.32086,-0.04833 44.64186,-0.04243 66.96283,-0.02834c5.86232,0.0037 10.06356,3.75642 10.09658,8.93601c0.02974,4.66595 -4.27452,8.76994 -9.57937,9.04145c-1.99365,0.10203 -3.99687,0.01675 -6.48558,0.01686z" fill="#ffffff"/>
  <path id="svg_15" d="m357.84067,94.54635c3.69589,9.10805 -4.11109,17.04387 -13.38584,17.40919c-5.95437,0.23455 -11.9255,0.04401 -18.17071,0.04401c0,-8.27621 0,-16.33639 0,-24.98363c7.13962,0 14.41074,-0.35946 21.62323,0.13533c4.29974,0.29499 7.69424,3.04375 9.93332,7.3951z" fill="none"/>
  <path id="svg_16" d="m254.71417,118.28972c1.48514,3.61485 2.7218,6.91444 4.0615,10.48891c-6.94584,0 -13.65093,0 -20.88846,0c3.48555,-8.65601 6.90588,-17.15004 10.57368,-26.25866c2.17978,5.61003 4.0923,10.53226 6.25328,15.76975z" fill="none"/>
 </g>

</svg>
