<svg xmlns="http://www.w3.org/2000/svg" viewBox="0 0 1600 900" role="img" aria-labelledby="title desc">
  <title id="title">Ravitaillement trail</title>
  <desc id="desc">Illustration montrant un ravitaillement en montagne avec boissons et aliments.</desc>
  <defs>
    <linearGradient id="sky" x1="0%" y1="0%" x2="0%" y2="100%">
      <stop offset="0%" stop-color="#0f172a"/>
      <stop offset="50%" stop-color="#0b2a33"/>
      <stop offset="100%" stop-color="#0a362b"/>
    </linearGradient>
  </defs>
  <rect width="1600" height="900" fill="url(#sky)"/>
  <path d="M0 640 Q220 560 460 600 T940 570 T1500 620 L1600 660 L1600 900 L0 900 Z" fill="#082820"/>
  <path d="M0 700 Q260 630 520 660 T1100 660 T1600 640 L1600 900 L0 900 Z" fill="#0e3d32" opacity="0.8"/>
  <circle cx="1390" cy="180" r="110" fill="#34d399" opacity="0.55"/>
  <rect x="260" y="430" width="1080" height="220" rx="28" fill="#0f1f2b" stroke="#46e7b2" stroke-width="8" opacity="0.95"/>
  <rect x="320" y="470" width="200" height="120" rx="18" fill="#12313c" stroke="#8af1c8" stroke-width="6"/>
  <rect x="560" y="470" width="220" height="120" rx="18" fill="#12313c" stroke="#8af1c8" stroke-width="6"/>
  <rect x="820" y="470" width="220" height="120" rx="18" fill="#12313c" stroke="#8af1c8" stroke-width="6"/>
  <rect x="1080" y="470" width="200" height="120" rx="18" fill="#12313c" stroke="#8af1c8" stroke-width="6"/>
  <g fill="#e2ffef" opacity="0.9">
    <circle cx="420" cy="520" r="26"/>
    <rect x="640" y="505" width="50" height="50" rx="8"/>
    <rect x="905" y="490" width="70" height="70" rx="12"/>
    <path d="M1180 570 c0 -30 24 -54 54 -54 s54 24 54 54" stroke="#b7ffe1" stroke-width="6" fill="none"/>
  </g>
  <text x="120" y="160" fill="#eafff5" font-family="'Inter', 'Segoe UI', system-ui, sans-serif" font-size="48" font-weight="600" letter-spacing="1">
    Ravitaillement trail réussi
  </text>
  <text x="120" y="215" fill="#a5f3c2" font-family="'Inter', 'Segoe UI', system-ui, sans-serif" font-size="26" font-weight="500">
    Optimiser l'énergie à chaque poste.
  </text>
</svg>
